<?xml version="1.0" encoding="UTF-8"?>
<svg width="122px" height="59px" viewBox="0 0 122 59" version="1.1" xmlns="http://www.w3.org/2000/svg" xmlnsXlink="http://www.w3.org/1999/xlink">
  <title>Agility Logo</title>
  <g id="agility-logo" stroke="none" strokeWidth="1" fill="none" fillRule="evenodd">
    <path d="M16.7414118,24.6986207 L12.9421387,33.9929199 L20.6844482,33.9929199 L16.7414118,24.6986207 Z M22.7609863,40.0423584 L10.7539062,40.0423584 L8.51264293,45.0144569 L0,45.0144569 L12.7288128,16.9954834 L20.8358483,16.9954834 L33.5237423,45.0144569 L24.9302848,45.0144569 L22.7609863,40.0423584 Z"
      id="a" fill="#84BF42"></path>
    <path d="M42.5197384,38.722819 C40.3290487,38.722819 38.6314303,37.188819 38.6314303,34.814069 C38.6314303,32.1524569 40.3290487,30.7023793 42.5197384,30.7023793 C44.7104282,30.7023793 46.2883591,32.5588448 46.2883591,34.814069 C46.2883591,37.475681 44.5058342,38.722819 42.5197384,38.722819 Z M50.3950712,41.0762069 C52.3601961,39.4440431 53.4660265,37.188819 53.5084797,34.8908707 C53.515129,34.7438793 53.5013189,34.5007586 53.5013189,34.451931 C53.4522164,32.7612759 52.890606,30.9729655 51.9668643,30.1515431 L53.1238431,30.1515431 L53.0767865,24.9460449 L44.8720574,24.9460449 L42.5059283,24.9684242 C37.7015508,24.9684242 33.6720729,26.6913966 32.0874927,30.6627069 C31.6363631,31.7206379 31.3795977,33.0115172 31.3795977,34.2021983 C31.3795977,34.2372931 31.3739713,34.6202845 31.3739713,34.7393017 C31.3739713,40.9037845 35.4817064,45.4310172 42.2087556,45.4310172 C44.9278093,45.4310172 45.9916978,46.9624741 45.9916978,48.4125517 C45.9916978,50.345819 43.3601081,51.2221724 41.4159541,51.2221724 C37.9363224,51.2221724 35.732334,51.1147211 34.1262715,47.0065918 L25.5328139,47.0065918 C27.9736198,55.2228504 32.4097282,58.4913793 42.0553102,58.4913793 C47.9864889,58.4913793 54.7130266,54.8710172 54.7130266,49.1342845 C54.7130266,48.0483793 54.3606135,43.0933966 49.8733566,41.510569 C50.0498189,41.3701897 50.2257697,41.230319 50.3950712,41.0762069 Z"
      id="g" fill="#84BF42"></path>
    <polygon id="i-1" fill="#969696" points="56 45 62 45 62 25 56 25"></polygon>
    <polygon id="dot-1" fill="#84BF42" points="56 19 61.9705631 19 61.9705631 13 56 13"></polygon>
    <polygon id="l" fill="#969696" points="66 45 72 45 72 16 66 16"></polygon>
    <polygon id="i-2" fill="#969696" points="76 45 82 45 82 25 76 25"></polygon>
    <polygon id="dot-2" fill="#84BF42" points="76 6 81.9705631 6 81.9705631 0 76 0"></polygon>
    <path d="M94.0118893,25 L99.059082,25 L99.059082,30 L93.970459,30 L93.970459,37.1384655 C93.970459,39.2817931 95.1724485,39.8590776 96.2915774,39.8590776 C96.996915,39.8590776 98.116044,39.6947931 98.7799514,39.3646983 L100.147662,44.3115431 C98.655149,44.8888276 97.4526481,45.1360172 95.8363558,45.2189224 C91.4002474,45.4244052 88.013916,43.4875776 88.013916,37.1384655 L88.013916,30 L84,30 L84,25 L88.013916,25 L88.013916,18.8505 L94.0118893,18.8337155 L94.0118893,25 Z"
      id="t" fill="#969696"></path>
    <path d="M103.867708,42.5181466 C106.146884,45.3842241 109.670504,45.5683448 111.176315,45.5683448 C113.566484,45.5683448 114.707095,46.7605517 114.707095,48.0351552 C114.707095,49.7344569 112.499526,50.6830345 110.565091,50.6830345 C107.506411,50.6830345 105.484511,50.6106983 104.072813,47 L97,47 C98.4561975,53.6263103 102.326604,56.9863707 110.803954,56.9863707 C116.016497,56.9863707 121.230052,53.8207155 121.230052,48.7787586 C121.230052,47.9532672 121.475565,45.2397759 118.868015,42.8421379 C120.185089,41.3071207 121.002441,38.929319 121.002441,35.3364224 L121.002441,25 L115.027344,25 L115.027344,35.2952241 C115.027344,38.2299655 113.97906,39.8077069 111.475342,39.997931 C108.972135,39.8077069 108.007155,38.2299655 108.007155,35.2952241 L108.007155,25 L101.995161,25 L101.995161,35.3364224 C101.995161,38.4613879 102.615593,40.6632069 103.642143,42.1966983"
      id="y" fill="#969696"></path>
  </g>
</svg>